<svg width="677" height="702" viewBox="0 0 677 702" fill="none" xmlns="http://www.w3.org/2000/svg">
<g filter="url(#filter0_d_170_344)">
<path d="M135.147 292.874C157.134 196.207 257.643 138.198 352.014 168.548C353.914 169.156 355.822 169.791 357.752 170.452C481.118 212.86 440.639 338.155 502.322 376.704C564.004 415.261 608.338 471.158 581.353 544.407C554.363 617.657 390.519 687.047 261.368 608.02C159.851 545.894 107.162 415.882 135.147 292.874Z" fill="#575757"/>
<path d="M135.147 292.874C157.134 196.207 257.643 138.198 352.014 168.548C353.914 169.156 355.822 169.791 357.752 170.452C481.118 212.86 440.639 338.155 502.322 376.704C564.004 415.261 608.338 471.158 581.353 544.407C554.363 617.657 390.519 687.047 261.368 608.02C159.851 545.894 107.162 415.882 135.147 292.874Z" stroke="#BFD9FF" stroke-width="1.109" stroke-miterlimit="3"/>
</g>
<g filter="url(#filter1_d_170_344)">
<path d="M164.988 165.635C164.988 209.812 129.178 245.627 84.9961 245.627C40.8142 245.627 5 209.812 5 165.635C5 121.453 40.8142 85.6387 84.9961 85.6387C129.178 85.6387 164.988 121.453 164.988 165.635Z" fill="white"/>
<path d="M164.988 165.635C164.988 209.812 129.178 245.627 84.9961 245.627C40.8142 245.627 5 209.812 5 165.635C5 121.453 40.8142 85.6387 84.9961 85.6387C129.178 85.6387 164.988 121.453 164.988 165.635Z" stroke="white" stroke-width="0.5" stroke-miterlimit="3"/>
</g>
<g filter="url(#filter2_d_170_344)">
<path d="M554.502 212.972L644.792 10.45C646.982 5.53796 643.388 0 638.01 0H384.664C375.262 0 366.746 5.52927 362.916 14.1144L271.253 219.714C269.062 224.626 272.657 230.164 278.034 230.164H528.012C539.462 230.164 549.838 223.431 554.502 212.972Z" fill="white"/>
</g>
<g filter="url(#filter3_d_170_344)">
<path d="M521.73 351.76L612.024 149.237C614.215 144.325 610.616 138.787 605.239 138.787H351.897C342.494 138.787 333.974 144.316 330.145 152.901L238.481 358.502C236.295 363.414 239.89 368.952 245.267 368.952H495.24C506.69 368.952 517.07 362.218 521.73 351.76Z" stroke="white" stroke-width="1.109" stroke-miterlimit="3" shape-rendering="crispEdges"/>
</g>
<g opacity="0.389999">
<g opacity="0.389999" filter="url(#filter4_d_170_344)">
<path d="M406.903 280.205H418.47L387.389 340.923H199.447L207.032 326.108" stroke="#A1C2FF" stroke-width="0.554" stroke-miterlimit="3" shape-rendering="crispEdges"/>
</g>
</g>
<path d="M450.198 79.6388C442.365 106.95 413.871 129.094 386.56 129.094C359.244 129.094 343.447 106.95 351.28 79.6388C359.113 52.3228 387.607 30.1797 414.923 30.1797C442.235 30.1797 458.032 52.3228 450.198 79.6388Z" fill="#E6F4FF"/>
<path d="M444.377 79.6391C437.465 103.738 412.327 123.273 388.223 123.273C364.124 123.273 350.188 103.738 357.1 79.6391C364.011 55.5354 389.149 35.9961 413.249 35.9961C437.352 35.9961 451.288 55.5354 444.377 79.6391Z" fill="#94C3FF"/>
<path d="M401.543 88.373C401.543 88.373 378.609 92.1635 368.819 96.0236C362.173 100.027 361.117 103.209 359.53 107.986C359.53 107.986 359.513 108.021 359.504 108.034C364.833 117.354 374.979 123.279 388.228 123.279C405.342 123.279 422.943 113.398 434.206 99.0621C428.076 90.0553 401.543 88.373 401.543 88.373Z" fill="#4361C4"/>
<path d="M393.47 78.6147L389.519 95.3198C389.023 97.4107 390.062 99.1582 392.036 99.4798C395.131 99.9797 400.06 99.9406 405.324 96.5805C406.924 95.5546 407.976 93.8462 408.093 92.2205C408.645 84.4265 410.232 68.4473 410.232 68.4473L393.47 78.6147Z" fill="#FF8D68"/>
<path d="M389.91 60.9088C389.91 60.9088 379.139 82.7173 381.238 88.5726C383.659 92.5717 405.311 83.591 408.858 77.7444C412.406 71.9022 420.552 61.3131 414.205 54.6884C407.859 48.0681 398.056 50.3198 389.91 60.9088Z" fill="#FF8D68"/>
<path d="M389.911 60.9092C389.911 60.9092 388.011 53.2108 394.531 48.6726C401.052 44.1344 409.415 45.0386 412.423 49.5768C415.436 54.1193 415.692 54.7974 415.692 54.7974C415.692 54.7974 418.9 55.4799 419.97 58.8835C421.035 62.2871 414.249 70.9071 411.493 73.4022C408.733 75.9017 409.302 75.9668 409.302 75.9668L408.381 74.7671C408.381 74.7671 408.902 68.1859 410.237 64.3258C410.598 62.2871 408.263 59.3356 404.151 58.6531C400.035 57.975 398.522 61.8046 389.911 60.9092Z" fill="#7E3636"/>
<path d="M410.902 70.8327C410.902 70.8327 412.402 68.0506 415.066 68.8374C417.713 69.7242 412.428 78.0572 409.624 77.4791C406.937 76.7879 410.902 70.8327 410.902 70.8327Z" fill="#FF8D68"/>
<path d="M408.289 89.0586C408.289 89.0586 402.533 95.4138 396.869 97.2264C395.874 97.5307 394.405 99.4955 394.405 99.4955L393.37 96.7744C393.37 96.7744 389.48 94.5053 390.61 90.5713L389.832 91.1755L387.75 96.3223C387.75 96.3223 386.211 101.16 386.293 102.977L391.505 100.104C391.505 100.104 394.679 101.16 397.213 100.252C397.213 100.252 398.286 103.886 399.26 104.186C400.234 104.49 408.106 97.0786 409.297 94.5053C410.641 91.9319 410.319 89.3629 410.319 89.3629L408.289 89.0586Z" fill="white"/>
<g opacity="0.389999">
<path opacity="0.389999" d="M574.458 98.6527H464.707C461.343 98.6527 459.604 95.9229 460.83 92.5583L476.366 49.8761C477.587 46.5115 481.313 43.7773 484.681 43.7773H594.428C597.797 43.7773 599.531 46.5115 598.31 49.8761L582.774 92.5583C581.548 95.9229 577.823 98.6527 574.458 98.6527Z" fill="#A1C2FF"/>
</g>
<path d="M580.797 63.0862H486.295L487.955 58.5176H582.461L580.797 63.0862Z" fill="#94C3FF"/>
<path d="M539.314 73.7585H482.408L484.069 69.1855H540.979L539.314 73.7585Z" fill="#94C3FF"/>
<path d="M493.627 83.4128H478.895L480.56 78.8398H495.296L493.627 83.4128Z" fill="#94C3FF"/>
<path d="M469.789 118.288C468.259 122.079 463.943 125.156 460.152 125.156C456.357 125.156 454.527 122.079 456.057 118.288C457.592 114.498 461.908 111.42 465.703 111.42C469.494 111.42 471.324 114.498 469.789 118.288Z" fill="#94C3FF"/>
<path d="M493.645 118.288C492.11 122.079 487.798 125.156 484.008 125.156C480.213 125.156 478.379 122.079 479.913 118.288C481.443 114.498 485.76 111.42 489.554 111.42C493.345 111.42 495.179 114.498 493.645 118.288Z" fill="#94C3FF"/>
<path d="M517.501 118.288C515.966 122.079 511.65 125.156 507.859 125.156C504.069 125.156 502.235 122.079 503.765 118.288C505.299 114.498 509.616 111.42 513.41 111.42C517.201 111.42 519.031 114.498 517.501 118.288Z" fill="#94C3FF"/>
<path d="M541.353 118.288C539.823 122.079 535.506 125.156 531.711 125.156C527.921 125.156 526.086 122.079 527.621 118.288C529.151 114.498 533.472 111.42 537.262 111.42C541.053 111.42 542.887 114.498 541.353 118.288Z" fill="#FF8D02"/>
<g opacity="0.389999">
<path opacity="0.389999" d="M565.209 118.288C563.678 122.079 559.362 125.156 555.567 125.156C551.777 125.156 549.942 122.079 551.472 118.288C553.007 114.498 557.328 111.42 561.118 111.42C564.909 111.42 566.743 114.498 565.209 118.288Z" fill="#A1C2FF"/>
</g>
<g opacity="0.389999">
<path opacity="0.389999" d="M508.529 139.162L478.248 170.629L446.872 183.075L482.434 209.178L518.179 178.68L508.529 139.162Z" fill="#A1C2FF"/>
</g>
<g opacity="0.699997">
<path opacity="0.699997" d="M501.357 157.441L478.249 170.63L458.709 182.984L485.213 202.019L510.272 179.128L501.357 157.441Z" fill="#A1C2FF"/>
</g>
<path d="M508.529 139.162L478.248 170.629L446.872 183.075L482.338 209.421L518.179 178.68L508.529 139.162Z" stroke="#4361C4" stroke-width="0.281" stroke-miterlimit="3"/>
<path d="M494.31 181.609C493.819 182.822 492.436 183.804 491.224 183.804C490.011 183.804 489.424 182.822 489.915 181.609C490.406 180.396 491.784 179.414 492.997 179.414C494.21 179.414 494.797 180.396 494.31 181.609Z" fill="#4361C4"/>
<path d="M464.534 159.896L491.333 181.122L443.504 183.561" stroke="#4361C4" stroke-width="0.281" stroke-miterlimit="3"/>
<path d="M480.357 216.741L492.311 181.118L523.843 177.949" stroke="#4361C4" stroke-width="0.281" stroke-miterlimit="3"/>
<path d="M510.303 134.768L492.311 181.119" stroke="#4361C4" stroke-width="0.281" stroke-miterlimit="3"/>
<path d="M466.972 159.489C466.151 161.528 463.834 163.175 461.8 163.175C459.761 163.175 458.779 161.528 459.6 159.489C460.422 157.455 462.739 155.803 464.773 155.803C466.807 155.803 467.794 157.455 466.972 159.489Z" fill="#94C3FF"/>
<path d="M445.285 183.587C444.464 185.621 442.147 187.268 440.112 187.268C438.078 187.268 437.091 185.621 437.913 183.587C438.734 181.548 441.056 179.9 443.09 179.9C445.124 179.9 446.107 181.548 445.285 183.587Z" fill="#FF8D02"/>
<path d="M483.839 217.319C483.017 219.353 480.7 221.005 478.666 221.005C476.627 221.005 475.645 219.353 476.467 217.319C477.288 215.285 479.609 213.633 481.644 213.633C483.678 213.633 484.661 215.285 483.839 217.319Z" fill="#94C3FF"/>
<path d="M528.13 177.993C527.308 180.027 524.991 181.679 522.957 181.679C520.918 181.679 519.936 180.027 520.762 177.993C521.583 175.958 523.896 174.307 525.93 174.307C527.969 174.307 528.951 175.958 528.13 177.993Z" fill="#94C3FF"/>
<path d="M514.397 133.538C513.575 135.576 511.254 137.224 509.22 137.224C507.185 137.224 506.203 135.576 507.024 133.538C507.846 131.503 510.163 129.852 512.197 129.852C514.236 129.852 515.214 131.503 514.397 133.538Z" fill="#FF8D02"/>
<path d="M430.724 164.291H338.852L345.877 146.908H437.744L430.724 164.291Z" fill="#4361C4"/>
<g opacity="0.389999">
<path opacity="0.389999" d="M375.405 203.396H323.055L326.063 195.945H378.409L375.405 203.396Z" fill="#A1C2FF"/>
</g>
<g opacity="0.389999">
<path opacity="0.389999" d="M367.559 188.499H329.072L336.096 171.115H374.579L367.559 188.499Z" fill="#A1C2FF"/>
</g>
<g filter="url(#filter5_d_170_344)">
<path d="M571.594 373.929L616.55 273.094C617.641 270.647 615.854 267.891 613.172 267.891H487.038C482.356 267.891 478.114 270.647 476.21 274.92L430.572 377.285C429.481 379.732 431.267 382.488 433.949 382.488H558.406C564.109 382.488 569.273 379.132 571.594 373.929Z" fill="white"/>
</g>
<g opacity="0.389999">
<path opacity="0.5" d="M565.617 323.214C556.545 345.662 530.998 363.862 508.546 363.862C486.099 363.862 475.249 345.662 484.321 323.214C493.393 300.767 518.94 282.566 541.392 282.566C563.839 282.566 574.689 300.767 565.617 323.214Z" fill="#8C9BB8"/>
</g>
<path d="M528.338 327.447C528.338 327.447 548.79 337.61 550.955 346.926C553.12 356.241 544.044 380.801 544.044 380.801H462.748C462.748 380.801 476.075 352.007 486.434 345.23C496.793 338.458 516.789 333.285 516.789 333.285L528.338 327.447Z" fill="#4385FF"/>
<path d="M519.954 320.84L513.577 334.619C512.777 336.345 513.251 337.919 514.737 338.366C517.067 339.071 520.94 339.479 525.731 337.101C527.187 336.38 528.348 335.028 528.756 333.663C530.721 327.117 535.098 313.732 535.098 313.732L519.954 320.84Z" fill="#94C3FF"/>
<path d="M520.636 305.534C520.636 305.534 507.908 323.026 508.403 328.168C509.521 331.767 528.269 326.112 532.198 321.483C536.124 316.849 544.596 308.62 540.914 302.448C537.236 296.275 529.103 297.301 520.636 305.534Z" fill="#94C3FF"/>
<path d="M521.17 302.966C521.17 302.966 520.966 303.239 520.718 303.652C519.979 304.9 518.884 307.408 521.94 307.573L526.017 307.791C526.017 307.791 532.568 304.061 535.137 308.008C537.054 311.955 530.816 314.368 531.333 316.341C531.855 318.315 531.59 317.876 530.712 318.975C529.829 320.071 529.121 321.823 526.178 323.135C523.231 324.452 520.909 324.235 518.097 325.769C515.285 327.304 509.851 325.548 509.286 324.235C507.977 323.135 507.221 325.548 506.382 327.087C505.543 328.621 502.952 329.06 505.447 331.034C507.938 333.007 509.777 333.881 514.128 331.255C518.48 328.621 518.614 328.843 523 327.743C527.391 326.648 530.655 324.426 532.324 321.701C533.998 318.975 534.537 315.463 535.95 314.15C537.358 312.833 538.141 314.15 537.523 315.685C536.902 317.219 542.879 314.368 544.3 309.764C545.721 305.161 543.218 305.378 542.966 302.748C542.714 300.114 545.709 297.045 542.518 294.633C539.327 292.224 536.332 295.293 535.198 293.755C534.063 292.224 529.108 292.003 525.148 295.293C521.192 298.58 520.966 303.239 520.966 303.239" fill="#4361C4"/>
<path d="M535.202 314.506C535.202 314.506 536.919 312.285 538.858 313.189C540.762 314.176 534.981 320.757 532.894 320.014C530.925 319.192 535.202 314.506 535.202 314.506Z" fill="#94C3FF"/>
<path d="M507.93 324.89C507.93 324.89 509.799 318.096 514.533 317.218C519.275 316.344 521.414 319.192 521.097 321.604C520.779 324.017 522.879 325.329 522.879 325.329C522.879 325.329 510.929 331.032 507.93 324.89Z" fill="#4361C4"/>
<g filter="url(#filter6_d_170_344)">
<path d="M515.045 510.054L560.001 409.223C561.092 406.775 559.301 404.02 556.624 404.02H430.489C425.808 404.02 421.565 406.771 419.657 411.044L374.023 513.409C372.932 515.857 374.718 518.613 377.401 518.613H501.857C507.56 518.613 512.724 515.261 515.045 510.054Z" fill="white"/>
</g>
<g opacity="0.389999">
<path opacity="0.5" d="M509.647 458.629C500.379 481.572 474.263 500.173 451.325 500.173C428.382 500.173 417.297 481.572 426.564 458.629C435.832 435.686 461.948 417.086 484.891 417.086C507.834 417.086 518.919 435.686 509.647 458.629Z" fill="#8C9BB8"/>
</g>
<path d="M479.64 446.823C479.64 446.823 485.834 443.876 486.66 447.453C487.49 451.031 484.756 453.578 484.756 453.578C484.756 453.578 490.351 452.039 491.846 456.816C493.337 461.594 488.842 463.867 490.703 465.571C492.567 467.271 496.428 470.909 491.029 476.96C485.63 483.011 477.74 489.953 468.59 485.484C459.444 481.011 462.356 459.255 462.356 459.255L464.591 452.9L479.64 446.823Z" fill="#4361C4"/>
<path d="M473.667 428.574C473.667 428.574 459.883 429.735 455.528 439.389C451.172 449.048 459.827 449.726 459.827 449.726L473.667 428.574Z" fill="#4361C4"/>
<path d="M384.064 494.23L384.951 495.83C384.951 495.83 395.575 508.505 405.033 516.617H424.725C434.992 507.254 449.007 490.94 449.072 490.274C449.163 489.327 461.422 475.995 458.718 470.561C456.018 465.123 452.51 465.997 452.51 465.997C452.51 465.997 448.52 466.545 444.03 471.187C439.544 475.834 417.418 510.14 417.418 510.14C417.418 510.14 414.584 505.015 409.35 501.107C404.116 497.199 388.82 488.957 388.82 488.957C388.82 488.957 389.758 482.333 389.667 481.068C389.58 479.803 385.768 474.026 384.612 475.265C383.46 476.503 386.164 481.941 386.164 481.941C386.164 481.941 383.177 492.626 384.064 494.23Z" fill="#94C3FF"/>
<path d="M433.327 507.01C433.327 507.01 433.914 511.222 435.04 516.617H474.136C475.001 507.793 476.826 490.057 477.918 485.845C479.387 480.186 478.087 468.14 478.557 464.828C479.026 461.52 469.572 462.733 469.572 462.733L457.261 462.941L455.275 463.793C452.545 464.958 450.071 467.019 448.463 469.483C446.937 471.818 444.69 475.217 441.669 479.677C436.809 483.367 426.089 489.775 426.881 497.856C427.672 505.937 433.327 507.01 433.327 507.01Z" fill="#4385FF"/>
<path d="M461.395 455.438C461.395 455.438 450.467 468.957 447.455 485.971C451.019 484.875 461.865 474.93 468.259 468.861C470.95 466.305 471.206 464.91 470.706 462.285C470.463 460.994 471.593 457.416 473.11 453.321C474.114 447.653 461.395 455.438 461.395 455.438Z" fill="#94C3FF"/>
<path d="M495.688 510.744C495.688 510.744 497.387 513.087 500.2 516.617H517.688C514.314 512.148 511.637 508.54 510.802 507.28C507.942 502.95 487.946 459.342 475.762 464.767C473.51 465.771 465.373 472.605 468.694 480.264C472.015 487.932 495.688 510.744 495.688 510.744Z" fill="#94C3FF"/>
<path d="M460.909 437.599C459.196 439.764 454.862 445.432 452.298 450.414C450.055 454.774 451.589 458.769 455.771 459.212C461.787 459.856 470.955 458.364 473.967 454.922C478.444 449.805 488.038 440.746 484.148 433.713C480.366 426.88 471.746 427.588 462.461 435.93C461.887 436.447 461.37 437.013 460.909 437.599Z" fill="#94C3FF"/>
<path d="M464.964 433.135C464.964 433.135 458.931 442.998 476.066 449.301L478.222 450.275C478.222 450.275 485.708 444.328 485.821 438.034C485.929 431.744 482.682 429.449 479.409 428.084C476.14 426.715 467.251 430.779 464.964 433.135Z" fill="#4361C4"/>
<path d="M475.596 450.722C475.596 450.722 479.93 447.731 479.887 450.487C479.839 453.252 473.745 456.208 473.106 455.056C472.471 453.904 475.596 450.722 475.596 450.722Z" fill="#94C3FF"/>
<path d="M377.978 426.488H239.047C234.787 426.488 232.726 423.032 234.448 418.772L244.319 394.329C246.045 390.065 250.896 386.609 255.156 386.609H394.092C398.352 386.609 400.417 390.065 398.691 394.329L388.815 418.772C387.094 423.032 382.242 426.488 377.978 426.488Z" fill="#4385FF"/>
<path d="M376.891 408.48H257.255L259.598 402.689H379.234L376.891 408.48Z" fill="white"/>
<path d="M265.615 23.9556H260.916C260.085 23.9556 259.686 23.2818 260.02 22.4472L261.92 17.7525C262.254 16.9179 263.202 16.2441 264.037 16.2441H268.731C269.566 16.2441 269.966 16.9179 269.631 17.7525L267.732 22.4472C267.397 23.2818 266.449 23.9556 265.615 23.9556Z" fill="white"/>
<path d="M313.804 23.9556H309.109C308.275 23.9556 307.875 23.2818 308.21 22.4472L310.109 17.7525C310.448 16.9179 311.391 16.2441 312.226 16.2441H316.921C317.755 16.2441 318.155 16.9179 317.821 17.7525L315.925 22.4472C315.586 23.2818 314.639 23.9556 313.804 23.9556Z" fill="#F68C4A"/>
<path d="M256.66 46.1255H251.961C251.131 46.1255 250.731 45.4517 251.065 44.6171L252.961 39.9181C253.3 39.0878 254.247 38.4141 255.078 38.4141H259.777C260.607 38.4141 261.007 39.0878 260.672 39.9181L258.777 44.6171C258.438 45.4517 257.49 46.1255 256.66 46.1255Z" fill="#F68C4A"/>
<path d="M280.755 46.1255H276.056C275.225 46.1255 274.825 45.4517 275.16 44.6171L277.055 39.9181C277.394 39.0878 278.342 38.4141 279.172 38.4141H283.871C284.706 38.4141 285.101 39.0878 284.767 39.9181L282.871 44.6171C282.532 45.4517 281.585 46.1255 280.755 46.1255Z" fill="white"/>
<path d="M304.849 46.1255H300.15C299.32 46.1255 298.92 45.4517 299.255 44.6171L301.15 39.9181C301.489 39.0878 302.437 38.4141 303.267 38.4141H307.966C308.801 38.4141 309.196 39.0878 308.861 39.9181L306.966 44.6171C306.627 45.4517 305.684 46.1255 304.849 46.1255Z" fill="white"/>
<path d="M324.128 46.1255H319.424C318.598 46.1255 318.194 45.4517 318.529 44.6171L320.428 39.9181C320.763 39.0878 321.711 38.4141 322.541 38.4141H327.24C328.075 38.4141 328.475 39.0878 328.14 39.9181L326.24 44.6171C325.905 45.4517 324.958 46.1255 324.128 46.1255Z" fill="white"/>
<path d="M247.705 68.2895H243.006C242.176 68.2895 241.772 67.6158 242.107 66.7812L244.006 62.0865C244.345 61.2519 245.288 60.5781 246.123 60.5781H250.822C251.652 60.5781 252.052 61.2519 251.718 62.0865L249.822 66.7812C249.483 67.6158 248.536 68.2895 247.705 68.2895Z" fill="white"/>
<path d="M228.426 68.2895H223.732C222.897 68.2895 222.497 67.6158 222.832 66.7812L224.731 62.0865C225.066 61.2519 226.014 60.5781 226.848 60.5781H231.543C232.378 60.5781 232.778 61.2519 232.443 62.0865L230.543 66.7812C230.208 67.6158 229.261 68.2895 228.426 68.2895Z" fill="white"/>
<path d="M271.8 68.2895H267.101C266.266 68.2895 265.871 67.6158 266.201 66.7812L268.101 62.0865C268.44 61.2519 269.383 60.5781 270.218 60.5781H274.912C275.747 60.5781 276.147 61.2519 275.812 62.0865L273.917 66.7812C273.578 67.6158 272.63 68.2895 271.8 68.2895Z" fill="white"/>
<path d="M295.895 68.2895H291.196C290.361 68.2895 289.966 67.6158 290.296 66.7812L292.195 62.0865C292.535 61.2519 293.478 60.5781 294.312 60.5781H299.007C299.842 60.5781 300.242 61.2519 299.907 62.0865L298.012 66.7812C297.673 67.6158 296.725 68.2895 295.895 68.2895Z" fill="#F68C4A"/>
<path d="M238.746 90.4595H234.047C233.217 90.4595 232.817 89.7857 233.151 88.9511L235.051 84.2521C235.386 83.4218 236.333 82.748 237.164 82.748H241.863C242.697 82.748 243.097 83.4218 242.762 84.2521L240.863 88.9511C240.528 89.7857 239.58 90.4595 238.746 90.4595Z" fill="white"/>
<g filter="url(#filter7_d_170_344)">
<path d="M267.531 459.121H260.906C259.737 459.121 259.168 458.174 259.646 457L262.319 450.375C262.793 449.202 264.123 448.254 265.297 448.254H271.922C273.095 448.254 273.66 449.202 273.186 450.375L270.513 457C270.039 458.174 268.7 459.121 267.531 459.121Z" fill="#4385FF"/>
</g>
<g filter="url(#filter8_d_170_344)">
<path d="M335.452 459.121H328.832C327.658 459.121 327.093 458.174 327.567 457L330.24 450.375C330.718 449.202 332.048 448.254 333.222 448.254H339.847C341.016 448.254 341.586 449.202 341.112 450.375L338.434 457C337.96 458.174 336.626 459.121 335.452 459.121Z" fill="#4385FF"/>
</g>
<g filter="url(#filter9_d_170_344)">
<path d="M254.908 490.365H248.283C247.114 490.365 246.549 489.418 247.023 488.244L249.696 481.619C250.17 480.446 251.505 479.498 252.678 479.498H259.298C260.468 479.498 261.037 480.446 260.563 481.619L257.886 488.244C257.412 489.418 256.082 490.365 254.908 490.365Z" fill="#BFD9FF"/>
</g>
<path d="M288.866 490.365H282.246C281.077 490.365 280.507 489.418 280.981 488.244L283.659 481.619C284.133 480.446 285.463 479.498 286.636 479.498H293.261C294.43 479.498 295 480.446 294.526 481.619L291.848 488.244C291.375 489.418 290.04 490.365 288.866 490.365Z" fill="#FF8D02"/>
<g filter="url(#filter10_d_170_344)">
<path d="M322.829 490.365H316.208C315.039 490.365 314.47 489.418 314.943 488.244L317.621 481.619C318.095 480.446 319.425 479.498 320.599 479.498H327.223C328.393 479.498 328.958 480.446 328.488 481.619L325.811 488.244C325.337 489.418 324.002 490.365 322.829 490.365Z" fill="#BFD9FF"/>
</g>
<g filter="url(#filter11_d_170_344)">
<path d="M350.001 490.365H343.377C342.207 490.365 341.638 489.418 342.112 488.244L344.789 481.619C345.263 480.446 346.598 479.498 347.771 479.498H354.392C355.561 479.498 356.13 480.446 355.657 481.619L352.979 488.244C352.505 489.418 351.171 490.365 350.001 490.365Z" fill="#BFD9FF"/>
</g>
<g filter="url(#filter12_d_170_344)">
<path d="M242.285 521.612H235.66C234.491 521.612 233.921 520.66 234.395 519.491L237.073 512.866C237.547 511.692 238.881 510.74 240.055 510.74H246.675C247.844 510.74 248.414 511.692 247.94 512.866L245.262 519.491C244.788 520.66 243.454 521.612 242.285 521.612Z" fill="#BFD9FF"/>
</g>
<path d="M215.112 521.612H208.492C207.323 521.612 206.753 520.66 207.227 519.491L209.905 512.866C210.378 511.692 211.709 510.74 212.882 510.74H219.507C220.676 510.74 221.246 511.692 220.772 512.866L218.094 519.491C217.62 520.66 216.286 521.612 215.112 521.612Z" fill="#BFD9FF"/>
<g filter="url(#filter13_d_170_344)">
<path d="M276.247 521.612H269.622C268.453 521.612 267.884 520.66 268.357 519.491L271.035 512.866C271.509 511.692 272.839 510.74 274.017 510.74H280.637C281.807 510.74 282.376 511.692 281.898 512.866L279.225 519.491C278.751 520.66 277.416 521.612 276.247 521.612Z" fill="#BFD9FF"/>
</g>
<g filter="url(#filter14_d_170_344)">
<path d="M310.205 521.612H303.584C302.411 521.612 301.845 520.66 302.319 519.491L304.993 512.866C305.466 511.692 306.801 510.74 307.975 510.74H314.599C315.769 510.74 316.334 511.692 315.86 512.866L313.187 519.491C312.713 520.66 311.378 521.612 310.205 521.612Z" fill="#FF8D02"/>
</g>
<g filter="url(#filter15_d_170_344)">
<path d="M229.661 552.853H223.037C221.867 552.853 221.298 551.906 221.772 550.736L224.449 544.111C224.923 542.938 226.253 541.99 227.431 541.99H234.052C235.221 541.99 235.79 542.938 235.312 544.111L232.639 550.736C232.165 551.906 230.831 552.853 229.661 552.853Z" fill="#FF8D02"/>
</g>
<g opacity="0.389999">
<g opacity="0.8" filter="url(#filter16_d_170_344)">
<path d="M384.166 325.375C383.481 326.711 382.106 327.552 380.605 327.552H201.649C198.659 327.552 196.726 324.391 198.088 321.729L225.074 269.008C225.758 267.671 227.133 266.83 228.635 266.83H407.591C410.581 266.83 412.514 269.991 411.151 272.653L384.166 325.375Z" fill="#A1C2FF"/>
</g>
</g>
<path d="M377.539 296.945C374.139 310.581 360.325 321.64 346.689 321.64C333.052 321.64 324.754 310.581 328.153 296.945C331.553 283.304 345.367 272.25 359.003 272.25C372.64 272.25 380.942 283.304 377.539 296.945Z" fill="#73A5FF"/>
<path d="M346.48 309.494C345.702 309.494 345.002 309.194 344.558 308.603L338.173 300.101C337.286 298.918 337.764 296.997 339.242 295.81C340.724 294.623 342.646 294.623 343.537 295.81L348.305 302.161L365.345 288.525C366.832 287.338 368.753 287.338 369.64 288.525C370.535 289.707 370.053 291.628 368.571 292.815L348.849 308.603C348.105 309.194 347.258 309.494 346.48 309.494Z" fill="white"/>
<path d="M204.723 151.299C204.723 156.068 201.237 159.932 196.938 159.932C192.634 159.932 189.148 156.068 189.148 151.299C189.148 146.53 192.634 142.666 196.938 142.666C201.237 142.666 204.723 146.53 204.723 151.299Z" stroke="#505E83" stroke-width="0.519" stroke-miterlimit="3"/>
<path d="M123.018 197.945C123.018 197.945 110.586 198.776 101.288 211.325C91.9899 223.875 105.47 269.9 145.452 288.491C171.482 298.724 173.342 275.477 166.835 259.206C160.328 242.936 141.492 201.762 123.018 197.945Z" fill="white"/>
<path d="M300.716 690.649C300.716 696.552 243.702 701.342 173.364 701.342C103.032 701.342 46.0175 696.552 46.0175 690.649C46.0175 684.741 103.032 679.951 173.364 679.951C243.702 679.951 300.716 684.741 300.716 690.649Z" fill="#BFD9FF"/>
<path d="M126.835 656.04C126.835 656.04 129.539 650.25 139.576 651.793C149.609 653.336 150.765 655.266 151.926 660.287C153.082 665.303 156.555 670.706 158.872 671.862C161.189 673.023 169.678 678.809 176.625 679.969C183.576 681.126 184.345 685.373 182.802 687.303C181.259 689.233 155.012 690.776 149.222 690.002C149.222 690.002 129.539 689.62 124.905 688.076C120.276 686.529 126.453 657.97 126.835 656.04Z" fill="#16142A"/>
<path d="M177.124 656.04C177.124 656.04 179.824 650.25 189.861 651.793C199.893 653.336 201.054 655.266 202.21 660.287C203.367 665.303 206.844 670.706 209.157 671.862C211.474 673.023 219.968 678.809 226.914 679.969C233.86 681.126 234.634 685.373 233.086 687.303C231.543 689.233 205.297 690.776 199.507 690.002C199.507 690.002 179.824 689.62 175.194 688.076C170.561 686.529 176.737 657.97 177.124 656.04Z" fill="#16142A"/>
<path d="M117.546 512.331C117.546 512.331 114.612 496.347 131.491 490.983C148.37 485.614 151.565 493.417 156.677 507.997C161.784 522.576 152.36 660.243 152.36 660.243C152.36 660.243 131.791 660.712 126.805 657.774C126.805 657.774 113.051 566.415 114.086 544.167C115.112 521.92 117.546 512.331 117.546 512.331Z" fill="#2B3554"/>
<path d="M196.585 157.17C196.585 157.17 200.536 162.517 200.536 165.303C200.536 168.089 195.19 168.089 195.19 168.089L196.585 157.17Z" fill="#FFB097"/>
<path d="M177.559 102.725C177.559 102.725 188.983 105.65 195.447 123.182C201.919 140.717 197.607 177.979 193.295 182.36C188.983 186.742 175.877 185.069 157.716 179.074C138.52 172.736 132.034 152.784 128.604 139.622C122.036 114.418 143.953 88.4802 177.559 102.725Z" fill="#FFB097"/>
<path d="M136.602 199.51L145.87 166.317C145.87 166.317 164.392 160.919 175.972 173.268L179.832 178.671V200.284C179.832 200.284 160.532 204.144 136.602 199.51Z" fill="#FFB097"/>
<path d="M110.743 378.211C110.743 378.211 103.796 418.738 110.743 465.058C117.689 511.37 131.586 516 144.322 516C157.059 516 160.532 478.951 162.849 462.737C165.161 446.527 174.429 390.952 157.059 378.211C139.693 365.475 120.01 364.319 110.743 378.211Z" fill="#2B3554"/>
<path d="M159.376 432.634C159.376 432.634 145.483 395.581 169.796 379.371C194.112 363.157 212.639 365.474 218.429 392.108C224.215 418.737 225.375 510.213 217.273 528.74C209.166 547.266 180.215 518.32 159.376 432.634Z" fill="#2B3F63"/>
<path d="M131.703 199.336C131.703 199.336 134.285 190.251 136.607 189.477C138.919 188.703 167.483 185.617 182.919 194.88C189.869 200.283 189.096 204.143 189.096 204.143C189.096 204.143 143.014 195.302 131.703 199.336Z" fill="white"/>
<path d="M216.577 378.211C216.577 378.211 218.898 383.792 217.503 385.653C215.647 387.509 163.119 406.105 107.8 392.621C106.87 392.621 109.191 383.323 109.191 383.323L216.577 378.211Z" fill="#6060E7"/>
<path d="M107.27 294.46C105.727 283.653 101.093 230.391 102.641 222.67C104.08 215.455 110.248 202.175 123.019 197.945C123.915 197.65 124.836 197.397 125.801 197.197C125.801 197.197 173.656 194.107 207.623 208.773C207.623 208.773 219.251 218.436 221.398 267.643C221.398 267.643 220.764 275.942 218.899 293.608C217.038 311.273 219.829 324.288 222.62 341.954C225.411 359.615 230.988 377.286 210.531 381.002C191.009 384.719 137.086 394.017 105.475 384.719C98.9633 380.072 108.261 358.689 108.261 341.954C108.261 325.218 107.27 294.46 107.27 294.46Z" fill="#2399D8"/>
<path d="M181.375 514.844C181.375 514.844 180.219 498.634 197.585 495.161C214.951 491.688 217.272 499.795 220.745 514.844C224.218 529.897 203.623 661.174 203.623 661.174C203.623 661.174 180.897 662.478 176.263 659.009C176.263 659.009 170.951 568.111 174.429 546.107C177.902 524.111 181.375 514.844 181.375 514.844Z" fill="#2B3F63"/>
<path d="M154.746 423.949C154.746 423.949 170.956 476.056 183.114 501.528" stroke="#2A2E59" stroke-width="0.666" stroke-miterlimit="3"/>
<path d="M187.744 511.948C187.744 511.948 197.585 506.158 207.427 511.948" stroke="#2A2E59" stroke-width="0.666" stroke-miterlimit="3"/>
<path d="M186.006 518.32C186.006 518.32 194.113 513.687 208.01 523.528" stroke="#2A2E59" stroke-width="0.666" stroke-miterlimit="3"/>
<path d="M125.218 505.001C125.218 505.001 131.586 499.211 146.057 505.583" stroke="#2A2E59" stroke-width="0.666" stroke-miterlimit="3"/>
<path d="M129.851 510.793C129.851 510.793 139.115 506.163 147.796 513.109" stroke="#2A2E59" stroke-width="0.666" stroke-miterlimit="3"/>
<path d="M151.269 520.055L147.796 638.16" stroke="#2A2E59" stroke-width="0.666" stroke-miterlimit="3"/>
<path d="M199.132 421.055C199.132 421.055 212.252 428.775 217.659 416.426" stroke="#2A2E59" stroke-width="0.666" stroke-miterlimit="3"/>
<path d="M212.252 422.602C212.252 422.602 218.429 470.461 216.881 502.107" stroke="#2A2E59" stroke-width="0.666" stroke-miterlimit="3"/>
<path d="M172.404 174.715C172.404 174.715 176.455 185.134 190.061 183.4" stroke="#E66657" stroke-width="0.666" stroke-miterlimit="3"/>
<path d="M189.865 110.394C189.865 110.394 196.46 119.461 196.877 124.821C197.286 130.181 188.631 135.536 187.392 138.831C186.157 142.13 188.992 146.273 187.753 148.334C186.518 150.398 186.127 154.61 186.127 154.61L186.549 159.279C186.705 160.987 185.549 162.535 183.867 162.874L182.88 163.07C181.458 163.352 180.037 162.591 179.502 161.244C178.02 157.519 174.96 150.563 172.556 149.964C169.257 149.138 165.957 154.91 164.723 157.792C164.027 159.422 162.276 163.813 160.88 167.338C159.659 170.425 156.777 172.52 153.469 172.759C149.904 173.011 145.627 173.189 144.058 172.741C141.171 171.915 126.392 144.604 125.979 131.415C125.566 118.227 134.634 105.034 144.114 100.913C153.595 96.7922 172.143 93.0799 189.865 110.394Z" fill="#7E3636"/>
<path d="M123.092 224.982C123.092 228.69 138.628 284.644 136.155 294.533C133.681 304.427 126.857 373.564 126.857 373.564" stroke="#6060E7" stroke-width="0.666" stroke-miterlimit="3"/>
<path d="M166.136 92.4372C166.136 92.4372 175.203 92.7849 178.342 88.2555C181.48 83.7216 191.591 82.674 198.907 89.9942C206.231 97.3187 205.884 110.916 199.607 115.797C199.607 115.797 206.931 114.402 207.975 119.631C209.022 124.861 199.959 132.881 189.148 135.319C189.148 135.319 171.717 130.442 166.488 133.576C161.258 136.715 126.044 133.229 126.044 133.229C126.044 133.229 118.376 126.256 120.463 119.984C122.558 113.702 124.649 120.327 124.649 120.327C124.649 120.327 122.906 111.611 134.412 99.0619C145.918 86.5124 161.954 93.4848 166.136 92.4372Z" fill="#7E3636"/>
<path d="M337.325 279.311L362.076 280.358C362.076 280.358 361.381 282.801 357.547 283.497C353.708 284.196 339.416 285.935 339.416 285.935L337.325 279.311Z" fill="#F79677"/>
<path d="M340.464 284.54C340.464 284.54 348.832 283.144 350.57 283.496C352.318 283.844 354.061 293.955 354.061 293.955L347.436 300.927C347.436 300.927 344.993 299.884 347.436 296.05L348.832 293.607L338.716 289.769L340.464 284.54Z" fill="#FFB097"/>
<path d="M316.408 290.468L326.866 289.073C326.866 289.073 335.582 280.357 337.325 279.314C339.064 278.262 347.784 291.863 348.831 293.606C348.831 295.002 343.602 299.531 338.368 300.231C333.139 300.927 331.396 299.531 331.396 299.531L319.894 304.065L316.408 290.468Z" fill="#FFB097"/>
<path d="M207.622 208.774C207.622 208.774 184.266 208.534 184.962 237.124C185.662 265.718 234.473 312.434 247.722 318.011C260.972 323.588 317.451 308.248 322.333 305.462C327.214 302.671 325.819 290.817 318.147 288.031L260.272 285.24C260.272 285.24 224.001 211.108 207.622 208.774Z" fill="white"/>
<path d="M261.202 289.887C261.202 289.887 268.174 297.324 266.318 307.087" stroke="#A6D0F4" stroke-width="0.535" stroke-miterlimit="3"/>
<path d="M264.919 288.49C264.919 288.49 276.542 292.211 277.473 304.761" stroke="#A6D0F4" stroke-width="0.535" stroke-miterlimit="3"/>
<path d="M204.723 151.299H180.546" stroke="#505E83" stroke-width="0.519" stroke-miterlimit="3"/>
<path d="M183.406 154.175C183.406 154.175 181.762 147.051 175.738 150.337C169.704 153.627 176.833 170.615 181.762 169.515C186.696 168.42 184.501 156.914 183.406 154.175Z" fill="#FFB097"/>
<path d="M133.016 120.678C133.016 120.678 149.752 116.844 161.606 129.394" stroke="#663136" stroke-width="0.535" stroke-miterlimit="3"/>
<path d="M135.224 118.118C135.224 118.118 142.432 110.45 154.751 113.706" stroke="#663136" stroke-width="0.535" stroke-miterlimit="3"/>
<path d="M133.599 123.93C133.599 123.93 138.71 124.395 142.197 130.207" stroke="#663136" stroke-width="0.535" stroke-miterlimit="3"/>
<path d="M184.266 90.6934C184.266 90.6934 201.002 95.9227 197.168 111.263" stroke="#663136" stroke-width="0.535" stroke-miterlimit="3"/>
<defs>
<filter id="filter0_d_170_344" x="123.136" y="159.902" width="470.84" height="491.691" filterUnits="userSpaceOnUse" color-interpolation-filters="sRGB">
<feFlood flood-opacity="0" result="BackgroundImageFix"/>
<feColorMatrix in="SourceAlpha" type="matrix" values="0 0 0 0 0 0 0 0 0 0 0 0 0 0 0 0 0 0 127 0" result="hardAlpha"/>
<feOffset dy="4"/>
<feGaussianBlur stdDeviation="2"/>
<feComposite in2="hardAlpha" operator="out"/>
<feColorMatrix type="matrix" values="0 0 0 0 0 0 0 0 0 0 0 0 0 0 0 0 0 0 0.25 0"/>
<feBlend mode="normal" in2="BackgroundImageFix" result="effect1_dropShadow_170_344"/>
<feBlend mode="normal" in="SourceGraphic" in2="effect1_dropShadow_170_344" result="shape"/>
</filter>
<filter id="filter1_d_170_344" x="0.75" y="85.3887" width="168.488" height="168.488" filterUnits="userSpaceOnUse" color-interpolation-filters="sRGB">
<feFlood flood-opacity="0" result="BackgroundImageFix"/>
<feColorMatrix in="SourceAlpha" type="matrix" values="0 0 0 0 0 0 0 0 0 0 0 0 0 0 0 0 0 0 127 0" result="hardAlpha"/>
<feOffset dy="4"/>
<feGaussianBlur stdDeviation="2"/>
<feComposite in2="hardAlpha" operator="out"/>
<feColorMatrix type="matrix" values="0 0 0 0 0 0 0 0 0 0 0 0 0 0 0 0 0 0 0.25 0"/>
<feBlend mode="normal" in2="BackgroundImageFix" result="effect1_dropShadow_170_344"/>
<feBlend mode="normal" in="SourceGraphic" in2="effect1_dropShadow_170_344" result="shape"/>
</filter>
<filter id="filter2_d_170_344" x="266.601" y="0" width="382.844" height="238.164" filterUnits="userSpaceOnUse" color-interpolation-filters="sRGB">
<feFlood flood-opacity="0" result="BackgroundImageFix"/>
<feColorMatrix in="SourceAlpha" type="matrix" values="0 0 0 0 0 0 0 0 0 0 0 0 0 0 0 0 0 0 127 0" result="hardAlpha"/>
<feOffset dy="4"/>
<feGaussianBlur stdDeviation="2"/>
<feComposite in2="hardAlpha" operator="out"/>
<feColorMatrix type="matrix" values="0 0 0 0 0 0 0 0 0 0 0 0 0 0 0 0 0 0 0.25 0"/>
<feBlend mode="normal" in2="BackgroundImageFix" result="effect1_dropShadow_170_344"/>
<feBlend mode="normal" in="SourceGraphic" in2="effect1_dropShadow_170_344" result="shape"/>
</filter>
<filter id="filter3_d_170_344" x="233.276" y="138.232" width="383.955" height="239.273" filterUnits="userSpaceOnUse" color-interpolation-filters="sRGB">
<feFlood flood-opacity="0" result="BackgroundImageFix"/>
<feColorMatrix in="SourceAlpha" type="matrix" values="0 0 0 0 0 0 0 0 0 0 0 0 0 0 0 0 0 0 127 0" result="hardAlpha"/>
<feOffset dy="4"/>
<feGaussianBlur stdDeviation="2"/>
<feComposite in2="hardAlpha" operator="out"/>
<feColorMatrix type="matrix" values="0 0 0 0 0 0 0 0 0 0 0 0 0 0 0 0 0 0 0.25 0"/>
<feBlend mode="normal" in2="BackgroundImageFix" result="effect1_dropShadow_170_344"/>
<feBlend mode="normal" in="SourceGraphic" in2="effect1_dropShadow_170_344" result="shape"/>
</filter>
<filter id="filter4_d_170_344" x="194.994" y="279.928" width="227.929" height="69.2715" filterUnits="userSpaceOnUse" color-interpolation-filters="sRGB">
<feFlood flood-opacity="0" result="BackgroundImageFix"/>
<feColorMatrix in="SourceAlpha" type="matrix" values="0 0 0 0 0 0 0 0 0 0 0 0 0 0 0 0 0 0 127 0" result="hardAlpha"/>
<feOffset dy="4"/>
<feGaussianBlur stdDeviation="2"/>
<feComposite in2="hardAlpha" operator="out"/>
<feColorMatrix type="matrix" values="0 0 0 0 0 0 0 0 0 0 0 0 0 0 0 0 0 0 0.25 0"/>
<feBlend mode="normal" in2="BackgroundImageFix" result="effect1_dropShadow_170_344"/>
<feBlend mode="normal" in="SourceGraphic" in2="effect1_dropShadow_170_344" result="shape"/>
</filter>
<filter id="filter5_d_170_344" x="426.246" y="267.891" width="194.629" height="122.598" filterUnits="userSpaceOnUse" color-interpolation-filters="sRGB">
<feFlood flood-opacity="0" result="BackgroundImageFix"/>
<feColorMatrix in="SourceAlpha" type="matrix" values="0 0 0 0 0 0 0 0 0 0 0 0 0 0 0 0 0 0 127 0" result="hardAlpha"/>
<feOffset dy="4"/>
<feGaussianBlur stdDeviation="2"/>
<feComposite in2="hardAlpha" operator="out"/>
<feColorMatrix type="matrix" values="0 0 0 0 0 0 0 0 0 0 0 0 0 0 0 0 0 0 0.25 0"/>
<feBlend mode="normal" in2="BackgroundImageFix" result="effect1_dropShadow_170_344"/>
<feBlend mode="normal" in="SourceGraphic" in2="effect1_dropShadow_170_344" result="shape"/>
</filter>
<filter id="filter6_d_170_344" x="369.698" y="404.02" width="194.628" height="122.594" filterUnits="userSpaceOnUse" color-interpolation-filters="sRGB">
<feFlood flood-opacity="0" result="BackgroundImageFix"/>
<feColorMatrix in="SourceAlpha" type="matrix" values="0 0 0 0 0 0 0 0 0 0 0 0 0 0 0 0 0 0 127 0" result="hardAlpha"/>
<feOffset dy="4"/>
<feGaussianBlur stdDeviation="2"/>
<feComposite in2="hardAlpha" operator="out"/>
<feColorMatrix type="matrix" values="0 0 0 0 0 0 0 0 0 0 0 0 0 0 0 0 0 0 0.25 0"/>
<feBlend mode="normal" in2="BackgroundImageFix" result="effect1_dropShadow_170_344"/>
<feBlend mode="normal" in="SourceGraphic" in2="effect1_dropShadow_170_344" result="shape"/>
</filter>
<filter id="filter7_d_170_344" x="255.476" y="448.254" width="21.8776" height="18.8672" filterUnits="userSpaceOnUse" color-interpolation-filters="sRGB">
<feFlood flood-opacity="0" result="BackgroundImageFix"/>
<feColorMatrix in="SourceAlpha" type="matrix" values="0 0 0 0 0 0 0 0 0 0 0 0 0 0 0 0 0 0 127 0" result="hardAlpha"/>
<feOffset dy="4"/>
<feGaussianBlur stdDeviation="2"/>
<feComposite in2="hardAlpha" operator="out"/>
<feColorMatrix type="matrix" values="0 0 0 0 0 0 0 0 0 0 0 0 0 0 0 0 0 0 0.25 0"/>
<feBlend mode="normal" in2="BackgroundImageFix" result="effect1_dropShadow_170_344"/>
<feBlend mode="normal" in="SourceGraphic" in2="effect1_dropShadow_170_344" result="shape"/>
</filter>
<filter id="filter8_d_170_344" x="323.399" y="448.254" width="21.8795" height="18.8672" filterUnits="userSpaceOnUse" color-interpolation-filters="sRGB">
<feFlood flood-opacity="0" result="BackgroundImageFix"/>
<feColorMatrix in="SourceAlpha" type="matrix" values="0 0 0 0 0 0 0 0 0 0 0 0 0 0 0 0 0 0 127 0" result="hardAlpha"/>
<feOffset dy="4"/>
<feGaussianBlur stdDeviation="2"/>
<feComposite in2="hardAlpha" operator="out"/>
<feColorMatrix type="matrix" values="0 0 0 0 0 0 0 0 0 0 0 0 0 0 0 0 0 0 0.25 0"/>
<feBlend mode="normal" in2="BackgroundImageFix" result="effect1_dropShadow_170_344"/>
<feBlend mode="normal" in="SourceGraphic" in2="effect1_dropShadow_170_344" result="shape"/>
</filter>
<filter id="filter9_d_170_344" x="242.855" y="479.498" width="21.8754" height="18.8672" filterUnits="userSpaceOnUse" color-interpolation-filters="sRGB">
<feFlood flood-opacity="0" result="BackgroundImageFix"/>
<feColorMatrix in="SourceAlpha" type="matrix" values="0 0 0 0 0 0 0 0 0 0 0 0 0 0 0 0 0 0 127 0" result="hardAlpha"/>
<feOffset dy="4"/>
<feGaussianBlur stdDeviation="2"/>
<feComposite in2="hardAlpha" operator="out"/>
<feColorMatrix type="matrix" values="0 0 0 0 0 0 0 0 0 0 0 0 0 0 0 0 0 0 0.25 0"/>
<feBlend mode="normal" in2="BackgroundImageFix" result="effect1_dropShadow_170_344"/>
<feBlend mode="normal" in="SourceGraphic" in2="effect1_dropShadow_170_344" result="shape"/>
</filter>
<filter id="filter10_d_170_344" x="310.776" y="479.498" width="21.8772" height="18.8672" filterUnits="userSpaceOnUse" color-interpolation-filters="sRGB">
<feFlood flood-opacity="0" result="BackgroundImageFix"/>
<feColorMatrix in="SourceAlpha" type="matrix" values="0 0 0 0 0 0 0 0 0 0 0 0 0 0 0 0 0 0 127 0" result="hardAlpha"/>
<feOffset dy="4"/>
<feGaussianBlur stdDeviation="2"/>
<feComposite in2="hardAlpha" operator="out"/>
<feColorMatrix type="matrix" values="0 0 0 0 0 0 0 0 0 0 0 0 0 0 0 0 0 0 0.25 0"/>
<feBlend mode="normal" in2="BackgroundImageFix" result="effect1_dropShadow_170_344"/>
<feBlend mode="normal" in="SourceGraphic" in2="effect1_dropShadow_170_344" result="shape"/>
</filter>
<filter id="filter11_d_170_344" x="337.945" y="479.498" width="21.8789" height="18.8672" filterUnits="userSpaceOnUse" color-interpolation-filters="sRGB">
<feFlood flood-opacity="0" result="BackgroundImageFix"/>
<feColorMatrix in="SourceAlpha" type="matrix" values="0 0 0 0 0 0 0 0 0 0 0 0 0 0 0 0 0 0 127 0" result="hardAlpha"/>
<feOffset dy="4"/>
<feGaussianBlur stdDeviation="2"/>
<feComposite in2="hardAlpha" operator="out"/>
<feColorMatrix type="matrix" values="0 0 0 0 0 0 0 0 0 0 0 0 0 0 0 0 0 0 0.25 0"/>
<feBlend mode="normal" in2="BackgroundImageFix" result="effect1_dropShadow_170_344"/>
<feBlend mode="normal" in="SourceGraphic" in2="effect1_dropShadow_170_344" result="shape"/>
</filter>
<filter id="filter12_d_170_344" x="230.228" y="510.74" width="21.8789" height="18.8711" filterUnits="userSpaceOnUse" color-interpolation-filters="sRGB">
<feFlood flood-opacity="0" result="BackgroundImageFix"/>
<feColorMatrix in="SourceAlpha" type="matrix" values="0 0 0 0 0 0 0 0 0 0 0 0 0 0 0 0 0 0 127 0" result="hardAlpha"/>
<feOffset dy="4"/>
<feGaussianBlur stdDeviation="2"/>
<feComposite in2="hardAlpha" operator="out"/>
<feColorMatrix type="matrix" values="0 0 0 0 0 0 0 0 0 0 0 0 0 0 0 0 0 0 0.25 0"/>
<feBlend mode="normal" in2="BackgroundImageFix" result="effect1_dropShadow_170_344"/>
<feBlend mode="normal" in="SourceGraphic" in2="effect1_dropShadow_170_344" result="shape"/>
</filter>
<filter id="filter13_d_170_344" x="264.19" y="510.74" width="21.8771" height="18.8711" filterUnits="userSpaceOnUse" color-interpolation-filters="sRGB">
<feFlood flood-opacity="0" result="BackgroundImageFix"/>
<feColorMatrix in="SourceAlpha" type="matrix" values="0 0 0 0 0 0 0 0 0 0 0 0 0 0 0 0 0 0 127 0" result="hardAlpha"/>
<feOffset dy="4"/>
<feGaussianBlur stdDeviation="2"/>
<feComposite in2="hardAlpha" operator="out"/>
<feColorMatrix type="matrix" values="0 0 0 0 0 0 0 0 0 0 0 0 0 0 0 0 0 0 0.25 0"/>
<feBlend mode="normal" in2="BackgroundImageFix" result="effect1_dropShadow_170_344"/>
<feBlend mode="normal" in="SourceGraphic" in2="effect1_dropShadow_170_344" result="shape"/>
</filter>
<filter id="filter14_d_170_344" x="298.152" y="510.74" width="21.8757" height="18.8711" filterUnits="userSpaceOnUse" color-interpolation-filters="sRGB">
<feFlood flood-opacity="0" result="BackgroundImageFix"/>
<feColorMatrix in="SourceAlpha" type="matrix" values="0 0 0 0 0 0 0 0 0 0 0 0 0 0 0 0 0 0 127 0" result="hardAlpha"/>
<feOffset dy="4"/>
<feGaussianBlur stdDeviation="2"/>
<feComposite in2="hardAlpha" operator="out"/>
<feColorMatrix type="matrix" values="0 0 0 0 0 0 0 0 0 0 0 0 0 0 0 0 0 0 0.25 0"/>
<feBlend mode="normal" in2="BackgroundImageFix" result="effect1_dropShadow_170_344"/>
<feBlend mode="normal" in="SourceGraphic" in2="effect1_dropShadow_170_344" result="shape"/>
</filter>
<filter id="filter15_d_170_344" x="217.605" y="541.99" width="21.8771" height="18.8633" filterUnits="userSpaceOnUse" color-interpolation-filters="sRGB">
<feFlood flood-opacity="0" result="BackgroundImageFix"/>
<feColorMatrix in="SourceAlpha" type="matrix" values="0 0 0 0 0 0 0 0 0 0 0 0 0 0 0 0 0 0 127 0" result="hardAlpha"/>
<feOffset dy="4"/>
<feGaussianBlur stdDeviation="2"/>
<feComposite in2="hardAlpha" operator="out"/>
<feColorMatrix type="matrix" values="0 0 0 0 0 0 0 0 0 0 0 0 0 0 0 0 0 0 0.25 0"/>
<feBlend mode="normal" in2="BackgroundImageFix" result="effect1_dropShadow_170_344"/>
<feBlend mode="normal" in="SourceGraphic" in2="effect1_dropShadow_170_344" result="shape"/>
</filter>
<filter id="filter16_d_170_344" x="193.644" y="266.83" width="221.952" height="68.7227" filterUnits="userSpaceOnUse" color-interpolation-filters="sRGB">
<feFlood flood-opacity="0" result="BackgroundImageFix"/>
<feColorMatrix in="SourceAlpha" type="matrix" values="0 0 0 0 0 0 0 0 0 0 0 0 0 0 0 0 0 0 127 0" result="hardAlpha"/>
<feOffset dy="4"/>
<feGaussianBlur stdDeviation="2"/>
<feComposite in2="hardAlpha" operator="out"/>
<feColorMatrix type="matrix" values="0 0 0 0 0 0 0 0 0 0 0 0 0 0 0 0 0 0 0.4 0"/>
<feBlend mode="normal" in2="BackgroundImageFix" result="effect1_dropShadow_170_344"/>
<feBlend mode="normal" in="SourceGraphic" in2="effect1_dropShadow_170_344" result="shape"/>
</filter>
</defs>
</svg>
